<svg xmlns="http://www.w3.org/2000/svg" xmlns:xlink="http://www.w3.org/1999/xlink" version="1.1" width="256" height="256" viewBox="0 0 256 256" xml:space="preserve">

<defs>
</defs>
<g style="stroke: none; stroke-width: 0; stroke-dasharray: none; stroke-linecap: butt; stroke-linejoin: miter; stroke-miterlimit: 10; fill: none; fill-rule: nonzero; opacity: 1;" transform="translate(1.4065934065934016 1.4065934065934016) scale(2.81 2.81)" >
	<path d="M 18.662 8.865 L 18.662 8.865 c -0.479 -0.199 -0.516 -0.642 -0.516 -0.773 c 0 -0.131 0.037 -0.574 0.516 -0.773 c 0.241 -0.1 0.429 -0.288 0.529 -0.529 c 0.1 -0.241 0.1 -0.507 0 -0.748 l -0.637 -1.537 c -0.207 -0.498 -0.779 -0.735 -1.278 -0.529 c -0.479 0.199 -0.819 -0.089 -0.911 -0.181 c -0.093 -0.093 -0.38 -0.432 -0.181 -0.911 c 0.1 -0.241 0.1 -0.507 0 -0.748 c -0.1 -0.241 -0.288 -0.429 -0.529 -0.529 l -1.537 -0.637 c -0.498 -0.206 -1.071 0.031 -1.277 0.529 c -0.198 0.478 -0.641 0.516 -0.772 0.516 s -0.574 -0.037 -0.773 -0.516 c -0.1 -0.241 -0.288 -0.429 -0.529 -0.529 c -0.241 -0.1 -0.507 -0.1 -0.748 0 L 8.481 1.606 c -0.241 0.1 -0.429 0.288 -0.529 0.529 c -0.1 0.241 -0.1 0.507 0 0.748 C 8.15 3.362 7.863 3.702 7.77 3.794 c -0.093 0.093 -0.432 0.38 -0.911 0.181 c -0.241 -0.1 -0.507 -0.1 -0.748 0 c -0.241 0.1 -0.429 0.288 -0.529 0.529 L 4.945 6.042 c -0.1 0.241 -0.1 0.507 0 0.748 S 5.233 7.22 5.474 7.319 C 5.953 7.518 5.99 7.961 5.99 8.092 c 0 0.131 -0.037 0.574 -0.516 0.773 c -0.498 0.207 -0.735 0.78 -0.529 1.277 l 0.637 1.537 c 0.1 0.241 0.288 0.429 0.529 0.529 c 0.241 0.1 0.507 0.1 0.748 0 c 0.479 -0.198 0.818 0.089 0.911 0.181 c 0.093 0.093 0.38 0.432 0.181 0.911 c -0.206 0.498 0.031 1.071 0.529 1.278 l 1.537 0.637 c 0.121 0.05 0.247 0.075 0.374 0.075 c 0.127 0 0.254 -0.025 0.374 -0.075 c 0.241 -0.1 0.429 -0.288 0.529 -0.529 c 0.199 -0.479 0.642 -0.516 0.773 -0.516 l 0 0 c 0.131 0 0.574 0.037 0.773 0.516 c 0.207 0.498 0.78 0.734 1.277 0.529 l 1.538 -0.637 c 0.498 -0.207 0.735 -0.779 0.529 -1.277 c -0.198 -0.479 0.089 -0.819 0.181 -0.911 c 0.093 -0.093 0.432 -0.38 0.911 -0.181 c 0.498 0.206 1.071 -0.031 1.277 -0.529 l 0.637 -1.537 C 19.397 9.644 19.16 9.071 18.662 8.865 z M 12.068 10.791 c -1.488 0 -2.699 -1.211 -2.699 -2.699 s 1.211 -2.699 2.699 -2.699 s 2.699 1.211 2.699 2.699 S 13.556 10.791 12.068 10.791 z" style="stroke: none; stroke-width: 1; stroke-dasharray: none; stroke-linecap: butt; stroke-linejoin: miter; stroke-miterlimit: 10; fill: rgb(255,226,122); fill-rule: nonzero; opacity: 1;" transform=" matrix(3.89 0 0 3.89 -1.9444444444444287 -1.9444444444444287) " stroke-linecap="round" />
	<path d="M 72.702 73.847 L 72.702 73.847 c -3.125 0 -5.658 -2.533 -5.658 -5.658 v -3.328 c 0 -3.125 2.533 -5.658 5.658 -5.658 h 0 c 3.125 0 5.658 2.533 5.658 5.658 v 3.328 C 78.359 71.314 75.826 73.847 72.702 73.847 z" style="stroke: none; stroke-width: 1; stroke-dasharray: none; stroke-linecap: butt; stroke-linejoin: miter; stroke-miterlimit: 10; fill: rgb(255,200,159); fill-rule: nonzero; opacity: 1;" transform=" matrix(1 0 0 1 0 0) " stroke-linecap="round" />
	<path d="M 81.604 89 v -6.251 c 0 -4.917 -3.986 -8.902 -8.902 -8.902 s -8.902 3.986 -8.902 8.902 V 89 H 81.604 z" style="stroke: none; stroke-width: 1; stroke-dasharray: none; stroke-linecap: butt; stroke-linejoin: miter; stroke-miterlimit: 10; fill: rgb(74,128,170); fill-rule: nonzero; opacity: 1;" transform=" matrix(1 0 0 1 0 0) " stroke-linecap="round" />
	<path d="M 17.298 73.847 L 17.298 73.847 c -3.125 0 -5.658 -2.533 -5.658 -5.658 v -3.328 c 0 -3.125 2.533 -5.658 5.658 -5.658 h 0 c 3.125 0 5.658 2.533 5.658 5.658 v 3.328 C 22.956 71.314 20.423 73.847 17.298 73.847 z" style="stroke: none; stroke-width: 1; stroke-dasharray: none; stroke-linecap: butt; stroke-linejoin: miter; stroke-miterlimit: 10; fill: rgb(255,200,159); fill-rule: nonzero; opacity: 1;" transform=" matrix(1 0 0 1 0 0) " stroke-linecap="round" />
	<path d="M 26.201 89 v -6.251 c 0 -4.917 -3.986 -8.902 -8.902 -8.902 s -8.902 3.986 -8.902 8.902 V 89 H 26.201 z" style="stroke: none; stroke-width: 1; stroke-dasharray: none; stroke-linecap: butt; stroke-linejoin: miter; stroke-miterlimit: 10; fill: rgb(74,128,170); fill-rule: nonzero; opacity: 1;" transform=" matrix(1 0 0 1 0 0) " stroke-linecap="round" />
	<path d="M 45.324 68.176 L 45.324 68.176 c -4.294 0 -7.775 -3.481 -7.775 -7.775 v -4.573 c 0 -4.294 3.481 -7.775 7.775 -7.775 h 0 c 4.294 0 7.775 3.481 7.775 7.775 v 4.573 C 53.098 64.695 49.617 68.176 45.324 68.176 z" style="stroke: none; stroke-width: 1; stroke-dasharray: none; stroke-linecap: butt; stroke-linejoin: miter; stroke-miterlimit: 10; fill: rgb(255,200,159); fill-rule: nonzero; opacity: 1;" transform=" matrix(1 0 0 1 0 0) " stroke-linecap="round" />
	<path d="M 57.557 89 v -8.59 c 0 -6.756 -5.477 -12.234 -12.234 -12.234 S 33.09 73.653 33.09 80.41 V 89 H 57.557 z" style="stroke: none; stroke-width: 1; stroke-dasharray: none; stroke-linecap: butt; stroke-linejoin: miter; stroke-miterlimit: 10; fill: rgb(74,128,170); fill-rule: nonzero; opacity: 1;" transform=" matrix(1 0 0 1 0 0) " stroke-linecap="round" />
	<path d="M 72.702 74.846 c -3.671 0 -6.658 -2.986 -6.658 -6.657 v -3.328 c 0 -3.671 2.987 -6.658 6.658 -6.658 c 3.671 0 6.657 2.987 6.657 6.658 v 3.328 C 79.359 71.86 76.373 74.846 72.702 74.846 z M 72.702 60.203 c -2.568 0 -4.658 2.09 -4.658 4.658 v 3.328 c 0 2.568 2.09 4.657 4.658 4.657 c 2.568 0 4.657 -2.089 4.657 -4.657 v -3.328 C 77.359 62.293 75.27 60.203 72.702 60.203 z" style="stroke: none; stroke-width: 1; stroke-dasharray: none; stroke-linecap: butt; stroke-linejoin: miter; stroke-miterlimit: 10; fill: rgb(0,0,0); fill-rule: nonzero; opacity: 1;" transform=" matrix(1 0 0 1 0 0) " stroke-linecap="round" />
	<path d="M 81.604 90 H 63.8 c -0.553 0 -1 -0.447 -1 -1 v -6.251 c 0 -5.46 4.442 -9.902 9.902 -9.902 c 5.46 0 9.902 4.442 9.902 9.902 V 89 C 82.604 89.552 82.157 90 81.604 90 z M 64.8 88 h 15.805 v -5.251 c 0 -4.357 -3.545 -7.902 -7.902 -7.902 c -4.357 0 -7.902 3.545 -7.902 7.902 V 88 z" style="stroke: none; stroke-width: 1; stroke-dasharray: none; stroke-linecap: butt; stroke-linejoin: miter; stroke-miterlimit: 10; fill: rgb(0,0,0); fill-rule: nonzero; opacity: 1;" transform=" matrix(1 0 0 1 0 0) " stroke-linecap="round" />
	<path d="M 17.298 74.846 c -3.671 0 -6.658 -2.986 -6.658 -6.657 v -3.328 c 0 -3.671 2.987 -6.658 6.658 -6.658 s 6.658 2.987 6.658 6.658 v 3.328 C 23.956 71.86 20.969 74.846 17.298 74.846 z M 17.298 60.203 c -2.568 0 -4.658 2.09 -4.658 4.658 v 3.328 c 0 2.568 2.089 4.657 4.658 4.657 s 4.658 -2.089 4.658 -4.657 v -3.328 C 21.956 62.293 19.866 60.203 17.298 60.203 z" style="stroke: none; stroke-width: 1; stroke-dasharray: none; stroke-linecap: butt; stroke-linejoin: miter; stroke-miterlimit: 10; fill: rgb(0,0,0); fill-rule: nonzero; opacity: 1;" transform=" matrix(1 0 0 1 0 0) " stroke-linecap="round" />
	<path d="M 26.201 90 H 8.396 c -0.552 0 -1 -0.447 -1 -1 v -6.251 c 0 -5.46 4.442 -9.902 9.902 -9.902 c 5.46 0 9.903 4.442 9.903 9.902 V 89 C 27.201 89.552 26.753 90 26.201 90 z M 9.396 88 h 15.805 v -5.251 c 0 -4.357 -3.545 -7.902 -7.903 -7.902 s -7.902 3.545 -7.902 7.902 V 88 z" style="stroke: none; stroke-width: 1; stroke-dasharray: none; stroke-linecap: butt; stroke-linejoin: miter; stroke-miterlimit: 10; fill: rgb(0,0,0); fill-rule: nonzero; opacity: 1;" transform=" matrix(1 0 0 1 0 0) " stroke-linecap="round" />
	<path d="M 8.412 14.959 c -0.033 0 -0.066 -0.006 -0.098 -0.02 c -0.639 -0.265 -0.943 -1 -0.678 -1.638 c 0.137 -0.331 -0.045 -0.564 -0.129 -0.648 c -0.084 -0.085 -0.317 -0.266 -0.649 -0.129 c -0.309 0.128 -0.65 0.128 -0.959 0 c -0.31 -0.129 -0.551 -0.369 -0.678 -0.679 l -0.649 -1.566 C 4.307 9.641 4.611 8.907 5.25 8.642 c 0.332 -0.137 0.368 -0.43 0.368 -0.55 c 0 -0.12 -0.036 -0.412 -0.367 -0.55 C 4.941 7.414 4.7 7.173 4.572 6.864 c -0.128 -0.309 -0.128 -0.65 0 -0.959 l 0.649 -1.566 c 0.128 -0.309 0.369 -0.55 0.678 -0.678 c 0.309 -0.128 0.65 -0.128 0.959 0 C 7.19 3.797 7.422 3.616 7.507 3.531 c 0.085 -0.085 0.266 -0.317 0.129 -0.649 c -0.128 -0.309 -0.128 -0.65 0 -0.959 c 0.128 -0.309 0.369 -0.55 0.678 -0.678 L 9.88 0.596 c 0.31 -0.128 0.65 -0.128 0.96 0 c 0.309 0.128 0.55 0.369 0.678 0.679 c 0.137 0.331 0.43 0.367 0.55 0.367 c 0.119 0 0.412 -0.036 0.55 -0.367 c 0.265 -0.638 1 -0.943 1.638 -0.678 l 1.567 0.649 c 0.309 0.128 0.55 0.369 0.678 0.678 c 0.128 0.309 0.128 0.65 0 0.959 c -0.137 0.331 0.044 0.564 0.129 0.649 c 0.084 0.084 0.316 0.266 0.648 0.129 c 0.639 -0.264 1.373 0.039 1.638 0.678 l 0.649 1.567 c 0.128 0.309 0.128 0.65 0 0.959 c -0.128 0.309 -0.369 0.55 -0.678 0.678 c -0.331 0.137 -0.367 0.43 -0.367 0.55 c 0 0.119 0.036 0.412 0.367 0.55 c 0.639 0.265 0.943 0.999 0.678 1.637 l -0.649 1.567 c -0.265 0.638 -0.999 0.942 -1.637 0.679 c -0.333 -0.138 -0.565 0.044 -0.649 0.129 c -0.085 0.085 -0.266 0.317 -0.129 0.648 c 0.264 0.638 -0.04 1.373 -0.678 1.638 c -0.131 0.054 -0.281 -0.008 -0.336 -0.139 c -0.054 -0.131 0.008 -0.281 0.139 -0.336 c 0.376 -0.156 0.556 -0.589 0.4 -0.966 c -0.209 -0.505 -0.013 -0.955 0.24 -1.209 c 0.123 -0.123 0.573 -0.504 1.209 -0.24 c 0.377 0.155 0.81 -0.024 0.966 -0.4 l 0.649 -1.566 c 0.156 -0.376 -0.023 -0.809 -0.4 -0.965 c -0.505 -0.209 -0.685 -0.667 -0.685 -1.025 c 0 -0.358 0.18 -0.816 0.685 -1.025 c 0.183 -0.075 0.325 -0.218 0.4 -0.4 c 0.076 -0.182 0.076 -0.383 0 -0.566 L 18.44 4.535 c -0.156 -0.376 -0.588 -0.556 -0.966 -0.4 c -0.635 0.263 -1.086 -0.117 -1.209 -0.24 c -0.123 -0.124 -0.503 -0.575 -0.24 -1.209 c 0.075 -0.182 0.075 -0.383 0 -0.565 c -0.076 -0.183 -0.218 -0.325 -0.4 -0.4 l -1.567 -0.649 c -0.376 -0.156 -0.81 0.024 -0.966 0.4 c -0.209 0.504 -0.667 0.684 -1.025 0.684 c -0.358 0 -0.816 -0.18 -1.025 -0.684 c -0.075 -0.183 -0.218 -0.325 -0.4 -0.4 s -0.383 -0.076 -0.566 0 L 8.511 1.72 c -0.183 0.076 -0.325 0.218 -0.4 0.4 c -0.076 0.182 -0.076 0.383 0 0.566 C 8.32 3.19 8.124 3.641 7.87 3.894 c -0.123 0.123 -0.573 0.504 -1.209 0.24 c -0.182 -0.075 -0.384 -0.076 -0.566 0 c -0.183 0.076 -0.325 0.218 -0.4 0.4 L 5.047 6.101 c -0.075 0.183 -0.075 0.383 0 0.566 c 0.076 0.183 0.218 0.325 0.4 0.4 c 0.505 0.209 0.685 0.666 0.685 1.025 c 0 0.358 -0.18 0.816 -0.685 1.025 c -0.376 0.156 -0.556 0.589 -0.4 0.966 l 0.649 1.567 c 0.076 0.182 0.218 0.324 0.4 0.4 c 0.182 0.075 0.383 0.075 0.566 0 c 0.506 -0.209 0.956 -0.013 1.209 0.241 c 0.253 0.253 0.449 0.704 0.24 1.209 c -0.156 0.377 0.023 0.81 0.4 0.966 c 0.131 0.054 0.193 0.205 0.139 0.336 C 8.609 14.899 8.513 14.959 8.412 14.959 z M 12.068 11.1 c -1.658 0 -3.008 -1.349 -3.008 -3.008 s 1.349 -3.008 3.008 -3.008 c 1.659 0 3.008 1.349 3.008 3.008 S 13.726 11.1 12.068 11.1 z M 12.068 5.598 c -1.375 0 -2.493 1.119 -2.493 2.493 s 1.119 2.493 2.493 2.493 c 1.375 0 2.493 -1.119 2.493 -2.493 S 13.443 5.598 12.068 5.598 z" style="stroke: none; stroke-width: 1; stroke-dasharray: none; stroke-linecap: butt; stroke-linejoin: miter; stroke-miterlimit: 10; fill: rgb(0,0,0); fill-rule: nonzero; opacity: 1;" transform=" matrix(3.89 0 0 3.89 -1.9444444444444287 -1.9444444444444287) " stroke-linecap="round" />
	<path d="M 45.324 69.177 c -4.838 0 -8.775 -3.936 -8.775 -8.775 v -4.573 c 0 -4.838 3.936 -8.774 8.775 -8.774 s 8.775 3.936 8.775 8.774 v 4.573 C 54.099 65.24 50.162 69.177 45.324 69.177 z M 45.324 49.054 c -3.736 0 -6.775 3.039 -6.775 6.774 v 4.573 c 0 3.736 3.039 6.775 6.775 6.775 s 6.775 -3.039 6.775 -6.775 v -4.573 C 52.099 52.093 49.06 49.054 45.324 49.054 z" style="stroke: none; stroke-width: 1; stroke-dasharray: none; stroke-linecap: butt; stroke-linejoin: miter; stroke-miterlimit: 10; fill: rgb(0,0,0); fill-rule: nonzero; opacity: 1;" transform=" matrix(1 0 0 1 0 0) " stroke-linecap="round" />
	<path d="M 57.558 90 H 33.09 c -0.552 0 -1 -0.447 -1 -1 v -8.59 c 0 -7.297 5.936 -13.233 13.234 -13.233 s 13.234 5.936 13.234 13.233 V 89 C 58.558 89.552 58.11 90 57.558 90 z M 34.09 88 h 22.468 v -7.59 c 0 -6.194 -5.039 -11.233 -11.234 -11.233 c -6.194 0 -11.234 5.039 -11.234 11.233 V 88 z" style="stroke: none; stroke-width: 1; stroke-dasharray: none; stroke-linecap: butt; stroke-linejoin: miter; stroke-miterlimit: 10; fill: rgb(0,0,0); fill-rule: nonzero; opacity: 1;" transform=" matrix(1 0 0 1 0 0) " stroke-linecap="round" />
</g>
</svg>